PathFileType	4	(X/Y/Z)	output_15markers.trc
DataRate	CameraRate	NumFrames	NumMarkers	Units	OrigDataRate	OrigDataStartFrame	OrigNumFrames
30	30	23	15	m	30	409	1089
Frame#	Time	Hip			RHip			RKnee			RAnkle			LHip			LKnee			LAnkle			Neck			Head			RShoulder			RElbow			RWrist			LShoulder			LElbow			LWrist
		X1	Y1	Z1	X2	Y2	Z2	X3	Y3	Z3	X4	Y4	Z4	X5	Y5	Z5	X6	Y6	Z6	X7	Y7	Z7	X8	Y8	Z8	X9	Y9	Z9	X10	Y10	Z10	X11	Y11	Z11	X12	Y12	Z12	X13	Y13	Z13	X14	Y14	Z14	X15	Y15	Z15

409	13.600000	-0.000040	0.803062	-0.000178	0.092871	0.784671	-0.037838	0.100397	0.422763	-0.079039	0.202052	0.000000	0.075467	-0.092860	0.821440	0.037815	-0.054329	0.429871	0.077872	0.002943	0.016433	0.207946	-0.021293	1.416032	-0.209644	0.013792	1.464587	-0.217251	0.095278	1.259706	-0.086054	0.181704	0.992848	-0.037996	0.191432	0.771474	-0.085197	-0.084291	1.270250	0.021935	-0.110536	1.018283	0.162895	-0.122647	0.784583	0.211114
410	13.633333	-0.000041	0.801554	-0.000182	0.092729	0.782539	-0.038470	0.107570	0.420465	-0.083604	0.220304	0.000000	0.060057	-0.092718	0.820558	0.038447	-0.043606	0.425035	0.093170	0.011061	0.011602	0.221674	-0.019553	1.410307	-0.210265	0.013114	1.459945	-0.217803	0.091534	1.262998	-0.080194	0.177116	0.996870	-0.022505	0.185801	0.770904	-0.075096	-0.086328	1.269228	0.019385	-0.106306	1.019251	0.160264	-0.116129	0.787631	0.215165
411	13.666667	-0.000044	0.807966	-0.000188	0.096075	0.789952	-0.036041	0.113439	0.426440	-0.086840	0.224582	0.000000	0.030276	-0.096062	0.825963	0.036013	-0.042872	0.426724	0.095801	0.006513	0.012053	0.226693	-0.022616	1.416158	-0.218687	0.006621	1.464071	-0.226601	0.096138	1.274891	-0.083315	0.192630	1.025288	-0.012450	0.197187	0.792663	-0.070577	-0.093540	1.271434	0.015179	-0.112995	1.024336	0.153693	-0.113043	0.797134	0.213776
412	13.700000	-0.000038	0.799673	-0.000185	0.094083	0.782570	-0.037343	0.103248	0.430243	-0.095204	0.202340	0.000000	-0.017521	-0.094076	0.816780	0.037326	-0.044683	0.417198	0.105183	0.002119	0.007065	0.240719	-0.005418	1.398248	-0.209223	0.020281	1.454764	-0.226620	0.108441	1.267423	-0.070461	0.236943	1.025963	0.005188	0.255876	0.898836	-0.074129	-0.085784	1.261249	0.014222	-0.116613	1.013673	0.146002	-0.094455	0.785678	0.195596
413	13.733333	-0.000049	0.799507	-0.000202	0.093007	0.780243	-0.036161	0.120056	0.420524	-0.095569	0.257535	0.000000	-0.051571	-0.092994	0.818756	0.036134	-0.036959	0.415426	0.116897	0.015689	0.003089	0.258370	-0.019017	1.402441	-0.227086	0.005216	1.450331	-0.243239	0.090091	1.273571	-0.074461	0.195262	1.025023	-0.000132	0.186341	0.792480	-0.067711	-0.095545	1.263965	0.009838	-0.120032	1.015288	0.145801	-0.116118	0.785934	0.208494
414	13.766667	-0.000050	0.793191	-0.000205	0.092954	0.773625	-0.037885	0.122769	0.416899	-0.108828	0.271643	0.000000	-0.089989	-0.092942	0.812747	0.037860	-0.036866	0.406553	0.129816	0.023560	0.000094	0.281281	-0.018424	1.393173	-0.228109	0.006970	1.444891	-0.247423	0.085730	1.265128	-0.073340	0.189812	1.008560	-0.004103	0.181398	0.786556	-0.071257	-0.096572	1.259905	0.004732	-0.122111	1.012949	0.139754	-0.115800	0.781342	0.201425
415	13.800000	-0.000050	0.794010	-0.000209	0.091497	0.773036	-0.039173	0.130722	0.417811	-0.113861	0.290506	0.008087	-0.116213	-0.091486	0.814974	0.039149	-0.040969	0.406532	0.145323	0.019128	0.000000	0.305482	-0.022463	1.390210	-0.230409	0.002153	1.442834	-0.252502	0.080750	1.269517	-0.075584	0.184975	1.012161	-0.006091	0.181085	0.791266	-0.076538	-0.095270	1.265643	0.000196	-0.114263	1.019099	0.132300	-0.105936	0.785001	0.193529
416	13.833333	-0.000052	0.787669	-0.000213	0.093570	0.767064	-0.037278	0.134467	0.414396	-0.121459	0.298952	0.007631	-0.128881	-0.093557	0.808261	0.037250	-0.041731	0.403123	0.151587	0.021683	0.000000	0.325029	-0.021321	1.386498	-0.229042	0.002907	1.438214	-0.249902	0.077916	1.265165	-0.072364	0.177522	1.000043	-0.007204	0.174013	0.776810	-0.075951	-0.097993	1.256825	-0.003346	-0.119298	1.008357	0.125064	-0.111085	0.771414	0.179321
417	13.866667	-0.000050	0.790001	-0.000208	0.092357	0.767781	-0.038767	0.137795	0.414242	-0.119080	0.305558	0.005775	-0.116990	-0.092345	0.812210	0.038741	-0.040305	0.402448	0.163487	0.021091	0.000000	0.348929	-0.022090	1.385960	-0.220569	0.000075	1.438553	-0.239005	0.075373	1.264867	-0.068491	0.179848	1.001033	-0.009614	0.180637	0.778836	-0.078490	-0.097064	1.259501	-0.001740	-0.118275	1.009028	0.121127	-0.108542	0.769433	0.174409
418	13.900000	-0.000050	0.787838	-0.000205	0.094271	0.766446	-0.037105	0.138845	0.418023	-0.121921	0.289679	0.000000	-0.114625	-0.094260	0.809217	0.037081	-0.039835	0.403648	0.166228	0.018572	0.004310	0.371211	-0.020846	1.379182	-0.216996	-0.000592	1.433575	-0.230059	0.076129	1.263580	-0.068073	0.172359	0.996560	-0.004145	0.172874	0.775207	-0.073753	-0.098824	1.255435	-0.003574	-0.120885	1.002329	0.113669	-0.114480	0.762526	0.162559
419	13.933333	-0.000051	0.792165	-0.000204	0.096198	0.770434	-0.036963	0.135134	0.419326	-0.121736	0.283536	0.000000	-0.099775	-0.096187	0.813881	0.036939	-0.042994	0.405378	0.166809	0.012173	0.012297	0.389001	-0.022137	1.386596	-0.206567	-0.001039	1.442932	-0.220957	0.073698	1.265843	-0.062082	0.163568	0.995667	-0.004594	0.168295	0.780131	-0.069643	-0.099157	1.260711	0.002852	-0.122031	1.006349	0.116160	-0.115587	0.765593	0.159813
420	13.966667	-0.000047	0.795674	-0.000206	0.100359	0.777117	-0.035762	0.129258	0.416861	-0.117888	0.267917	0.000000	-0.087994	-0.100346	0.814215	0.035735	-0.046044	0.401991	0.157328	-0.005912	0.016387	0.409406	-0.011526	1.396527	-0.197329	0.008290	1.446349	-0.205531	0.089472	1.271032	-0.050490	0.192000	1.014671	0.020149	0.211497	0.800630	-0.055509	-0.101745	1.263816	0.007274	-0.125484	1.008070	0.118803	-0.106866	0.768523	0.158560
421	14.000000	-0.000045	0.800036	-0.000210	0.103318	0.784480	-0.032796	0.132450	0.418685	-0.103184	0.267169	0.000000	-0.059800	-0.103303	0.815575	0.032766	-0.041582	0.401866	0.146767	-0.006345	0.029507	0.430960	-0.012170	1.399703	-0.194608	0.006368	1.450409	-0.203833	0.085467	1.278562	-0.042980	0.179315	1.013426	0.019941	0.196317	0.799721	-0.053151	-0.107791	1.275044	0.011856	-0.129870	1.015880	0.120663	-0.125170	0.773182	0.159451
422	14.033333	-0.000046	0.808431	-0.000209	0.104779	0.794944	-0.033763	0.120407	0.422842	-0.086718	0.245357	0.000000	-0.037320	-0.104765	0.821901	0.033732	-0.040453	0.403063	0.117583	-0.003585	0.054043	0.443125	-0.006149	1.409699	-0.188557	0.015786	1.459851	-0.195004	0.085918	1.280491	-0.040495	0.165005	1.007062	0.014392	0.178740	0.794899	-0.049748	-0.105018	1.285007	0.015832	-0.124860	1.022307	0.124526	-0.132791	0.774830	0.157549
423	14.066667	-0.000047	0.815157	-0.000210	0.105717	0.805787	-0.031007	0.112390	0.427296	-0.070932	0.222715	0.000000	-0.015216	-0.105699	0.824510	0.030970	-0.038717	0.409461	0.082219	-0.000106	0.076315	0.442773	-0.002378	1.418017	-0.187347	0.021637	1.469991	-0.193242	0.083510	1.285180	-0.036512	0.155024	1.003948	0.011401	0.164111	0.791271	-0.045346	-0.104549	1.295042	0.019059	-0.118650	1.032880	0.125611	-0.139327	0.781399	0.150068
424	14.100000	-0.000048	0.823168	-0.000213	0.108517	0.817643	-0.026672	0.103838	0.429748	-0.054846	0.203544	0.000000	0.011344	-0.108496	0.828676	0.026630	-0.032543	0.417803	0.045829	0.008998	0.099261	0.425167	-0.000705	1.436090	-0.188795	0.025411	1.486092	-0.193012	0.086902	1.293264	-0.037119	0.162376	1.010338	0.005757	0.176757	0.802749	-0.042883	-0.109451	1.307876	0.018033	-0.125818	1.046238	0.129136	-0.149188	0.790106	0.139558
425	14.133333	-0.000049	0.823838	-0.000216	0.109026	0.819848	-0.020207	0.099071	0.427409	-0.038207	0.193770	0.000000	0.030600	-0.109003	0.827812	0.020162	-0.032839	0.426610	0.007801	0.003789	0.107951	0.400201	0.001480	1.441167	-0.189499	0.028084	1.489740	-0.192310	0.088793	1.295403	-0.037792	0.164019	1.007614	-0.003679	0.183296	0.806576	-0.050896	-0.108148	1.311908	0.015817	-0.123959	1.054154	0.131821	-0.151104	0.796937	0.134212
426	14.166667	-0.000047	0.829545	-0.000210	0.109131	0.824957	-0.013601	0.098350	0.427438	-0.024223	0.185172	0.000000	0.049600	-0.109111	0.834121	0.013563	-0.028312	0.431018	-0.007055	0.012613	0.109168	0.363978	-0.000191	1.449708	-0.190280	0.022470	1.498474	-0.191879	0.088810	1.300557	-0.038012	0.166155	1.011730	-0.004634	0.186227	0.812484	-0.051656	-0.112939	1.311246	0.013076	-0.131576	1.055190	0.136159	-0.155114	0.805274	0.128187
427	14.200000	-0.000043	0.829354	-0.000207	0.108764	0.825043	-0.007413	0.103049	0.427733	-0.006965	0.178808	0.000000	0.072795	-0.108744	0.833658	0.007377	-0.033492	0.434997	-0.035030	0.003358	0.097300	0.307604	-0.000261	1.450405	-0.193048	0.022716	1.500364	-0.195311	0.095495	1.300078	-0.040150	0.181389	1.015640	-0.008512	0.198343	0.812651	-0.046353	-0.111623	1.314416	0.011601	-0.136004	1.061694	0.140824	-0.156287	0.810566	0.128648
428	14.233333	-0.000042	0.832578	-0.000199	0.106243	0.827275	-0.005682	0.103627	0.431564	0.008791	0.168444	0.000000	0.085603	-0.106227	0.837883	0.005651	-0.038048	0.447851	-0.062469	-0.001021	0.082495	0.236004	0.004228	1.453211	-0.198880	0.030999	1.499726	-0.200143	0.101654	1.301078	-0.047534	0.186470	1.011318	-0.022209	0.201737	0.809447	-0.064011	-0.105020	1.315758	0.014266	-0.128591	1.063454	0.144555	-0.155785	0.811993	0.128015
429	14.266667	-0.000040	0.834734	-0.000195	0.105273	0.825812	-0.003103	0.102217	0.432513	0.024328	0.157071	0.000000	0.124450	-0.105258	0.843662	0.003074	-0.042076	0.461004	-0.080377	-0.014266	0.064954	0.162251	0.009253	1.452937	-0.203693	0.034027	1.496567	-0.206280	0.108470	1.301286	-0.047401	0.191341	1.011444	-0.026956	0.208188	0.807404	-0.066521	-0.097033	1.317507	0.015496	-0.115043	1.068076	0.141085	-0.140815	0.815730	0.127084
430	14.300000	-0.000040	0.847414	-0.000187	0.100296	0.837788	-0.001375	0.088501	0.446187	0.030866	0.116977	0.000000	0.137613	-0.100284	0.857055	0.001351	-0.031943	0.481971	-0.093658	-0.002422	0.063662	0.094412	0.003248	1.466615	-0.199758	0.032904	1.512138	-0.205182	0.106375	1.306153	-0.053644	0.183329	1.018265	-0.032214	0.192402	0.811078	-0.073136	-0.092062	1.327166	0.018820	-0.108964	1.078742	0.144666	-0.133238	0.831586	0.128575
431	14.333333	-0.000040	0.849857	-0.000189	0.096841	0.839864	0.002466	0.083217	0.450506	0.050291	0.108240	0.000000	0.167426	-0.096830	0.859873	-0.002488	-0.016808	0.481029	-0.097873	0.019558	0.053054	0.025785	-0.001177	1.475605	-0.204941	0.026358	1.521241	-0.212252	0.104125	1.311475	-0.058232	0.183103	1.025986	-0.034643	0.190739	0.814080	-0.075468	-0.092031	1.331032	0.013781	-0.114180	1.083257	0.155769	-0.139822	0.843321	0.137269
